<svg id="visual" viewBox="0 0 1280 800" width="1280" height="800" xmlns="http://www.w3.org/2000/svg" xmlns:xlink="http://www.w3.org/1999/xlink" version="1.1"><path d="M0 65L21.3 66.3C42.7 67.7 85.3 70.3 128 67.7C170.7 65 213.3 57 256 58.3C298.7 59.7 341.3 70.3 384 77C426.7 83.7 469.3 86.3 512 79.7C554.7 73 597.3 57 640 57C682.7 57 725.3 73 768 73C810.7 73 853.3 57 896 57C938.7 57 981.3 73 1024 78.3C1066.7 83.7 1109.3 78.3 1152 70.3C1194.7 62.3 1237.3 51.7 1258.7 46.3L1280 41L1280 0L1258.7 0C1237.3 0 1194.7 0 1152 0C1109.3 0 1066.7 0 1024 0C981.3 0 938.7 0 896 0C853.3 0 810.7 0 768 0C725.3 0 682.7 0 640 0C597.3 0 554.7 0 512 0C469.3 0 426.7 0 384 0C341.3 0 298.7 0 256 0C213.3 0 170.7 0 128 0C85.3 0 42.7 0 21.3 0L0 0Z" fill="#6198ff"></path><path d="M0 145L21.3 151.7C42.7 158.3 85.3 171.7 128 167.7C170.7 163.7 213.3 142.3 256 135.7C298.7 129 341.3 137 384 139.7C426.7 142.3 469.3 139.7 512 139.7C554.7 139.7 597.3 142.3 640 142.3C682.7 142.3 725.3 139.7 768 137C810.7 134.3 853.3 131.7 896 133C938.7 134.3 981.3 139.7 1024 143.7C1066.7 147.7 1109.3 150.3 1152 146.3C1194.7 142.3 1237.3 131.7 1258.7 126.3L1280 121L1280 39L1258.7 44.3C1237.3 49.7 1194.7 60.3 1152 68.3C1109.3 76.3 1066.7 81.7 1024 76.3C981.3 71 938.7 55 896 55C853.3 55 810.7 71 768 71C725.3 71 682.7 55 640 55C597.3 55 554.7 71 512 77.7C469.3 84.3 426.7 81.7 384 75C341.3 68.3 298.7 57.7 256 56.3C213.3 55 170.7 63 128 65.7C85.3 68.3 42.7 65.7 21.3 64.3L0 63Z" fill="#4f8cff"></path><path d="M0 209L21.3 214.3C42.7 219.7 85.3 230.3 128 233C170.7 235.7 213.3 230.3 256 242.3C298.7 254.3 341.3 283.7 384 291.7C426.7 299.7 469.3 286.3 512 283.7C554.7 281 597.3 289 640 278.3C682.7 267.7 725.3 238.3 768 237C810.7 235.7 853.3 262.3 896 277C938.7 291.7 981.3 294.3 1024 279.7C1066.7 265 1109.3 233 1152 230.3C1194.7 227.7 1237.3 254.3 1258.7 267.7L1280 281L1280 119L1258.7 124.3C1237.3 129.7 1194.7 140.3 1152 144.3C1109.3 148.3 1066.7 145.7 1024 141.7C981.3 137.7 938.7 132.3 896 131C853.3 129.7 810.7 132.3 768 135C725.3 137.7 682.7 140.3 640 140.3C597.3 140.3 554.7 137.7 512 137.7C469.3 137.7 426.7 140.3 384 137.7C341.3 135 298.7 127 256 133.7C213.3 140.3 170.7 161.7 128 165.7C85.3 169.7 42.7 156.3 21.3 149.7L0 143Z" fill="#3c80ff"></path><path d="M0 249L21.3 253C42.7 257 85.3 265 128 266.3C170.7 267.7 213.3 262.3 256 273C298.7 283.7 341.3 310.3 384 318.3C426.7 326.3 469.3 315.7 512 318.3C554.7 321 597.3 337 640 327.7C682.7 318.3 725.3 283.7 768 279.7C810.7 275.7 853.3 302.3 896 321C938.7 339.7 981.3 350.3 1024 333C1066.7 315.7 1109.3 270.3 1152 265C1194.7 259.7 1237.3 294.3 1258.7 311.7L1280 329L1280 279L1258.7 265.7C1237.3 252.3 1194.7 225.7 1152 228.3C1109.3 231 1066.7 263 1024 277.7C981.3 292.3 938.7 289.7 896 275C853.3 260.3 810.7 233.7 768 235C725.3 236.3 682.7 265.7 640 276.3C597.3 287 554.7 279 512 281.7C469.3 284.3 426.7 297.7 384 289.7C341.3 281.7 298.7 252.3 256 240.3C213.3 228.3 170.7 233.7 128 231C85.3 228.3 42.7 217.7 21.3 212.3L0 207Z" fill="#2573ff"></path><path d="M0 505L21.3 510.3C42.7 515.7 85.3 526.3 128 505C170.7 483.7 213.3 430.3 256 429C298.7 427.7 341.3 478.3 384 489C426.7 499.7 469.3 470.3 512 457C554.7 443.7 597.3 446.3 640 445C682.7 443.7 725.3 438.3 768 435.7C810.7 433 853.3 433 896 447.7C938.7 462.3 981.3 491.7 1024 481C1066.7 470.3 1109.3 419.7 1152 414.3C1194.7 409 1237.3 449 1258.7 469L1280 489L1280 327L1258.7 309.7C1237.3 292.3 1194.7 257.7 1152 263C1109.3 268.3 1066.7 313.7 1024 331C981.3 348.3 938.7 337.7 896 319C853.3 300.3 810.7 273.7 768 277.7C725.3 281.7 682.7 316.3 640 325.7C597.3 335 554.7 319 512 316.3C469.3 313.7 426.7 324.3 384 316.3C341.3 308.3 298.7 281.7 256 271C213.3 260.3 170.7 265.7 128 264.3C85.3 263 42.7 255 21.3 251L0 247Z" fill="#0066ff"></path><path d="M0 553L21.3 557C42.7 561 85.3 569 128 549C170.7 529 213.3 481 256 478.3C298.7 475.7 341.3 518.3 384 523.7C426.7 529 469.3 497 512 483.7C554.7 470.3 597.3 475.7 640 479.7C682.7 483.7 725.3 486.3 768 487.7C810.7 489 853.3 489 896 499.7C938.7 510.3 981.3 531.7 1024 523.7C1066.7 515.7 1109.3 478.3 1152 474.3C1194.7 470.3 1237.3 499.7 1258.7 514.3L1280 529L1280 487L1258.7 467C1237.3 447 1194.7 407 1152 412.3C1109.3 417.7 1066.7 468.3 1024 479C981.3 489.7 938.7 460.3 896 445.7C853.3 431 810.7 431 768 433.7C725.3 436.3 682.7 441.7 640 443C597.3 444.3 554.7 441.7 512 455C469.3 468.3 426.7 497.7 384 487C341.3 476.3 298.7 425.7 256 427C213.3 428.3 170.7 481.7 128 503C85.3 524.3 42.7 513.7 21.3 508.3L0 503Z" fill="#005fee"></path><path d="M0 617L21.3 617C42.7 617 85.3 617 128 595.7C170.7 574.3 213.3 531.7 256 526.3C298.7 521 341.3 553 384 557C426.7 561 469.3 537 512 530.3C554.7 523.7 597.3 534.3 640 538.3C682.7 542.3 725.3 539.7 768 534.3C810.7 529 853.3 521 896 529C938.7 537 981.3 561 1024 562.3C1066.7 563.7 1109.3 542.3 1152 546.3C1194.7 550.3 1237.3 579.7 1258.7 594.3L1280 609L1280 527L1258.7 512.3C1237.3 497.7 1194.7 468.3 1152 472.3C1109.3 476.3 1066.7 513.7 1024 521.7C981.3 529.7 938.7 508.3 896 497.7C853.3 487 810.7 487 768 485.7C725.3 484.3 682.7 481.7 640 477.7C597.3 473.7 554.7 468.3 512 481.7C469.3 495 426.7 527 384 521.7C341.3 516.3 298.7 473.7 256 476.3C213.3 479 170.7 527 128 547C85.3 567 42.7 559 21.3 555L0 551Z" fill="#0059dd"></path><path d="M0 745L21.3 747.7C42.7 750.3 85.3 755.7 128 753C170.7 750.3 213.3 739.7 256 729C298.7 718.3 341.3 707.7 384 703.7C426.7 699.7 469.3 702.3 512 707.7C554.7 713 597.3 721 640 722.3C682.7 723.7 725.3 718.3 768 714.3C810.7 710.3 853.3 707.7 896 715.7C938.7 723.7 981.3 742.3 1024 745C1066.7 747.7 1109.3 734.3 1152 730.3C1194.7 726.3 1237.3 731.7 1258.7 734.3L1280 737L1280 607L1258.7 592.3C1237.3 577.7 1194.7 548.3 1152 544.3C1109.3 540.3 1066.7 561.7 1024 560.3C981.3 559 938.7 535 896 527C853.3 519 810.7 527 768 532.3C725.3 537.7 682.7 540.3 640 536.3C597.3 532.3 554.7 521.7 512 528.3C469.3 535 426.7 559 384 555C341.3 551 298.7 519 256 524.3C213.3 529.7 170.7 572.3 128 593.7C85.3 615 42.7 615 21.3 615L0 615Z" fill="#0052cc"></path><path d="M0 801L21.3 801C42.7 801 85.3 801 128 801C170.7 801 213.3 801 256 801C298.7 801 341.3 801 384 801C426.7 801 469.3 801 512 801C554.7 801 597.3 801 640 801C682.7 801 725.3 801 768 801C810.7 801 853.3 801 896 801C938.7 801 981.3 801 1024 801C1066.7 801 1109.3 801 1152 801C1194.7 801 1237.3 801 1258.7 801L1280 801L1280 735L1258.7 732.3C1237.3 729.7 1194.7 724.3 1152 728.3C1109.3 732.3 1066.7 745.7 1024 743C981.3 740.3 938.7 721.7 896 713.7C853.3 705.7 810.7 708.3 768 712.3C725.3 716.3 682.7 721.7 640 720.3C597.3 719 554.7 711 512 705.7C469.3 700.3 426.7 697.7 384 701.7C341.3 705.7 298.7 716.3 256 727C213.3 737.7 170.7 748.3 128 751C85.3 753.7 42.7 748.3 21.3 745.7L0 743Z" fill="#004cbb"></path></svg>